<svg width="44" height="81" viewBox="0 0 44 81" fill="none" xmlns="http://www.w3.org/2000/svg">
<rect x="1.18848" y="0.5" width="41.623" height="79.32" rx="3.5" stroke="black" stroke-linejoin="round"/>
<path d="M1 74H43V77.1538C43 78.8107 41.6569 80.1538 40 80.1538H4C2.34315 80.1538 1 78.8107 1 77.1538V74Z" fill="black"/>
<mask id="path-4-inside-1" fill="white">
<path d="M8.32377 75.5H6.43033C6.19305 75.5 6 75.6917 6 75.9273V77.8077C6 78.0433 6.19305 78.235 6.43033 78.235H8.32377C8.56105 78.235 8.7541 78.0433 8.7541 77.8077V75.9273C8.7541 75.6917 8.56105 75.5 8.32377 75.5ZM8.53893 77.8077C8.53893 77.9255 8.44241 78.0214 8.32377 78.0214H6.43033C6.31169 78.0214 6.21516 77.9255 6.21516 77.8077V75.9273C6.21516 75.8095 6.31169 75.7137 6.43033 75.7137H8.32377C8.44241 75.7137 8.53893 75.8095 8.53893 75.9273V77.8077Z"/>
</mask>
<path d="M8.32377 74.5H6.43033V76.5H8.32377V74.5ZM6.43033 74.5C5.64732 74.5 5 75.1329 5 75.9273H7C7 76.2505 6.73877 76.5 6.43033 76.5V74.5ZM5 75.9273V77.8077H7V75.9273H5ZM5 77.8077C5 78.6022 5.64732 79.235 6.43033 79.235V77.235C6.73877 77.235 7 77.4845 7 77.8077H5ZM6.43033 79.235H8.32377V77.235H6.43033V79.235ZM8.32377 79.235C9.10678 79.235 9.7541 78.6022 9.7541 77.8077H7.7541C7.7541 77.4845 8.01533 77.235 8.32377 77.235V79.235ZM9.7541 77.8077V75.9273H7.7541V77.8077H9.7541ZM9.7541 75.9273C9.7541 75.1329 9.10678 74.5 8.32377 74.5V76.5C8.01533 76.5 7.7541 76.2505 7.7541 75.9273H9.7541ZM7.53893 77.8077C7.53893 77.3667 7.89669 77.0214 8.32377 77.0214V79.0214C8.98814 79.0214 9.53893 78.4843 9.53893 77.8077H7.53893ZM8.32377 77.0214H6.43033V79.0214H8.32377V77.0214ZM6.43033 77.0214C6.85741 77.0214 7.21516 77.3667 7.21516 77.8077H5.21516C5.21516 78.4843 5.76596 79.0214 6.43033 79.0214V77.0214ZM7.21516 77.8077V75.9273H5.21516V77.8077H7.21516ZM7.21516 75.9273C7.21516 76.3684 6.85741 76.7137 6.43033 76.7137V74.7137C5.76596 74.7137 5.21516 75.2507 5.21516 75.9273H7.21516ZM6.43033 76.7137H8.32377V74.7137H6.43033V76.7137ZM8.32377 76.7137C7.89669 76.7137 7.53893 76.3684 7.53893 75.9273H9.53893C9.53893 75.2507 8.98814 74.7137 8.32377 74.7137V76.7137ZM7.53893 75.9273V77.8077H9.53893V75.9273H7.53893Z" fill="white" mask="url(#path-4-inside-1)"/>
<g clip-path="url(#clip0)">
<mask id="path-6-inside-2" fill="white">
<path d="M36.8543 76.3794H35.0308C34.9686 76.3794 34.9182 76.4294 34.9182 76.4912C34.9182 76.5529 34.9686 76.603 35.0308 76.603H36.8543C37.1812 76.603 37.4472 76.8671 37.4472 77.1917C37.4472 77.5163 37.1812 77.7804 36.8543 77.7804H35.1809C35.1187 77.7804 35.0683 77.8305 35.0683 77.8922C35.0683 77.954 35.1187 78.004 35.1809 78.004H36.8543C37.3053 78.004 37.6723 77.6396 37.6723 77.1917C37.6723 76.7438 37.3054 76.3794 36.8543 76.3794Z"/>
</mask>
<path d="M36.8543 75.3794H35.0308V77.3794H36.8543V75.3794ZM35.0308 75.3794C34.4229 75.3794 33.9182 75.8706 33.9182 76.4912H35.9182C35.9182 76.9883 35.5143 77.3794 35.0308 77.3794V75.3794ZM33.9182 76.4912C33.9182 77.1117 34.4229 77.603 35.0308 77.603V75.603C35.5143 75.603 35.9182 75.9941 35.9182 76.4912H33.9182ZM35.0308 77.603H36.8543V75.603H35.0308V77.603ZM36.8543 77.603C36.6356 77.603 36.4472 77.4259 36.4472 77.1917H38.4472C38.4472 76.3082 37.7269 75.603 36.8543 75.603V77.603ZM36.4472 77.1917C36.4472 76.9575 36.6356 76.7804 36.8543 76.7804V78.7804C37.7269 78.7804 38.4472 78.0752 38.4472 77.1917H36.4472ZM36.8543 76.7804H35.1809V78.7804H36.8543V76.7804ZM35.1809 76.7804C34.573 76.7804 34.0683 77.2717 34.0683 77.8922H36.0683C36.0683 78.3893 35.6644 78.7804 35.1809 78.7804V76.7804ZM34.0683 77.8922C34.0683 78.5128 34.573 79.004 35.1809 79.004V77.004C35.6644 77.004 36.0683 77.3951 36.0683 77.8922H34.0683ZM35.1809 79.004H36.8543V77.004H35.1809V79.004ZM36.8543 79.004C37.851 79.004 38.6723 78.1985 38.6723 77.1917H36.6723C36.6723 77.0807 36.7597 77.004 36.8543 77.004V79.004ZM38.6723 77.1917C38.6723 76.185 37.8511 75.3794 36.8543 75.3794V77.3794C36.7597 77.3794 36.6723 77.3027 36.6723 77.1917H38.6723Z" fill="white" mask="url(#path-6-inside-2)"/>
<mask id="path-8-inside-3" fill="white">
<path d="M35.6859 77.0661L35.1803 76.4913L35.6859 75.9165C35.7268 75.87 35.722 75.7994 35.6752 75.7588C35.6283 75.7182 35.5573 75.723 35.5163 75.7694L34.946 76.4178C34.9089 76.4599 34.9089 76.5227 34.946 76.5648L35.5163 77.2132C35.5386 77.2385 35.5698 77.2514 35.6012 77.2514C35.6274 77.2514 35.6538 77.2423 35.6752 77.2238C35.722 77.1832 35.7268 77.1126 35.6859 77.0661Z"/>
</mask>
<path d="M35.6859 77.0661L36.4368 76.4057L36.4367 76.4056L35.6859 77.0661ZM35.1803 76.4913L34.4294 75.8308L33.8484 76.4913L34.4294 77.1518L35.1803 76.4913ZM35.6859 75.9165L36.4367 76.577L36.4371 76.5766L35.6859 75.9165ZM35.6752 75.7588L36.3304 75.0033L36.3301 75.003L35.6752 75.7588ZM35.5163 75.7694L34.766 75.1084L34.7655 75.1089L35.5163 75.7694ZM34.946 76.4178L35.6965 77.0786L35.6969 77.0783L34.946 76.4178ZM34.946 76.5648L35.6969 75.9044L35.6965 75.904L34.946 76.5648ZM35.5163 77.2132L34.7655 77.8737L34.7664 77.8748L35.5163 77.2132ZM35.6752 77.2238L35.02 76.4684L35.0199 76.4684L35.6752 77.2238ZM36.4367 76.4056L35.9311 75.8308L34.4294 77.1518L34.9351 77.7266L36.4367 76.4056ZM35.9311 77.1518L36.4367 76.577L34.9351 75.256L34.4294 75.8308L35.9311 77.1518ZM36.4371 76.5766C36.8442 76.1132 36.7962 75.4074 36.3304 75.0033L35.0199 76.5142C34.6477 76.1914 34.6093 75.6268 34.9347 75.2564L36.4371 76.5766ZM36.3301 75.003C35.8686 74.6032 35.1702 74.6495 34.766 75.1084L36.2667 76.4305C35.9443 76.7964 35.388 76.8332 35.0203 76.5145L36.3301 75.003ZM34.7655 75.1089L34.1952 75.7573L35.6969 77.0783L36.2672 76.4299L34.7655 75.1089ZM34.1955 75.7569C33.8258 76.1768 33.8258 76.8058 34.1955 77.2257L35.6965 75.904C35.9921 76.2397 35.9921 76.7429 35.6965 77.0786L34.1955 75.7569ZM34.1952 77.2253L34.7655 77.8737L36.2672 76.5527L35.6969 75.9044L34.1952 77.2253ZM34.7664 77.8748C34.9865 78.1243 35.2952 78.2514 35.6012 78.2514V76.2514C35.8445 76.2514 36.0907 76.3527 36.2662 76.5516L34.7664 77.8748ZM35.6012 78.2514C35.8586 78.2514 36.1201 78.1617 36.3304 77.9792L35.0199 76.4684C35.1875 76.323 35.3963 76.2514 35.6012 76.2514V78.2514ZM36.3304 77.9793C36.7959 77.5756 36.8447 76.8695 36.4368 76.4057L34.935 77.7265C34.6089 77.3557 34.6481 76.7909 35.02 76.4684L36.3304 77.9793Z" fill="white" mask="url(#path-8-inside-3)"/>
</g>
<mask id="path-10-inside-4" fill="white">
<path d="M23.1394 76.6896C23.1393 76.6895 23.1392 76.6895 23.1392 76.6894L22.0156 75.5738C21.9677 75.5262 21.904 75.5 21.8363 75.5C21.7686 75.5 21.7049 75.5262 21.657 75.5738L20.534 76.6888C20.5336 76.6892 20.5332 76.6896 20.5329 76.69C20.4345 76.7882 20.4347 76.9476 20.5333 77.0455C20.5784 77.0903 20.6379 77.1162 20.7016 77.119C20.7042 77.1192 20.7068 77.1193 20.7094 77.1193H20.7542V77.9404C20.7542 78.1029 20.8873 78.235 21.051 78.235H21.4905C21.5351 78.235 21.5712 78.1992 21.5712 78.1549V77.5112C21.5712 77.4371 21.632 77.3768 21.7067 77.3768H21.9659C22.0406 77.3768 22.1013 77.4371 22.1013 77.5112V78.1549C22.1013 78.1992 22.1374 78.235 22.182 78.235H22.6216C22.7853 78.235 22.9184 78.1029 22.9184 77.9404V77.1193H22.9599C23.0276 77.1193 23.0913 77.0932 23.1392 77.0456C23.238 76.9474 23.238 76.7878 23.1394 76.6896V76.6896ZM23.0251 76.9323C23.0077 76.9495 22.9845 76.9591 22.9599 76.9591H22.8377C22.7931 76.9591 22.757 76.995 22.757 77.0392V77.9404C22.757 78.0145 22.6963 78.0748 22.6216 78.0748H22.2627V77.5112C22.2627 77.3487 22.1296 77.2165 21.9659 77.2165H21.7067C21.543 77.2165 21.4099 77.3487 21.4099 77.5112V78.0748H21.051C20.9763 78.0748 20.9156 78.0145 20.9156 77.9404V77.0392C20.9156 76.995 20.8795 76.9591 20.8349 76.9591H20.7148C20.7135 76.959 20.7123 76.9589 20.711 76.9589C20.6869 76.9585 20.6644 76.949 20.6475 76.9322C20.6116 76.8965 20.6116 76.8385 20.6475 76.8028C20.6475 76.8028 20.6475 76.8028 20.6475 76.8027L20.6476 76.8027L21.7711 75.6871C21.7885 75.6698 21.8117 75.6603 21.8363 75.6603C21.8609 75.6603 21.884 75.6698 21.9015 75.6871L23.0247 76.8024C23.0249 76.8026 23.0251 76.8028 23.0253 76.8029C23.061 76.8387 23.0609 76.8966 23.0251 76.9323V76.9323Z"/>
</mask>
<path d="M23.1392 76.6894L23.8438 75.9798L23.8438 75.9798L23.1392 76.6894ZM22.0156 75.5738L21.3108 76.2832L21.311 76.2834L22.0156 75.5738ZM21.657 75.5738L22.3616 76.2834L22.3616 76.2834L21.657 75.5738ZM20.534 76.6888L19.8294 75.9792L19.8294 75.9792L20.534 76.6888ZM20.5329 76.69L21.2395 77.3976L21.2486 77.3885L21.2575 77.3792L20.5329 76.69ZM20.5333 77.0455L21.2381 76.3361L21.238 76.3359L20.5333 77.0455ZM20.7016 77.119L20.7972 76.1236L20.7709 76.121L20.7445 76.1199L20.7016 77.119ZM20.7542 77.1193H21.7542V76.1193H20.7542V77.1193ZM22.9184 77.1193V76.1193H21.9184V77.1193H22.9184ZM23.1392 77.0456L23.8438 77.7551L23.844 77.755L23.1392 77.0456ZM22.2627 78.0748H21.2627V79.0748H22.2627V78.0748ZM21.4099 78.0748V79.0748H22.4099V78.0748H21.4099ZM20.7148 76.9591L20.6487 77.9569L20.6817 77.9591H20.7148V76.9591ZM20.711 76.9589L20.6936 77.9588L20.6947 77.9588L20.711 76.9589ZM20.6475 76.9322L21.3526 76.2231L21.3521 76.2226L20.6475 76.9322ZM20.6475 76.8028V75.8028H20.2352L19.9427 76.0934L20.6475 76.8028ZM20.6475 76.8027L21.3522 77.5123L20.6475 76.8027ZM20.6476 76.8027L19.943 76.0931L19.943 76.0931L20.6476 76.8027ZM21.7711 75.6871L22.4757 76.3967L22.4762 76.3962L21.7711 75.6871ZM21.9015 75.6871L21.1968 76.3967L21.1969 76.3967L21.9015 75.6871ZM23.0247 76.8024L23.7293 76.0928L23.7293 76.0928L23.0247 76.8024ZM23.0253 76.8029L23.7324 76.0958L23.7299 76.0933L23.0253 76.8029ZM23.7366 75.8876C23.8078 75.9406 23.8554 75.9913 23.8697 76.0065C23.8748 76.012 23.8847 76.0228 23.8774 76.0149C23.8752 76.0125 23.8618 75.9977 23.8438 75.9798L22.4345 77.399C22.4166 77.3811 22.4031 77.3664 22.401 77.364C22.3938 77.3561 22.4037 77.367 22.4088 77.3725C22.4232 77.3878 22.4708 77.4386 22.5421 77.4917L23.7366 75.8876ZM23.8438 75.9798L22.7202 74.8642L21.311 76.2834L22.4346 77.399L23.8438 75.9798ZM22.7204 74.8643C22.4843 74.6299 22.167 74.5 21.8363 74.5V76.5C21.6411 76.5 21.4511 76.4225 21.3108 76.2832L22.7204 74.8643ZM21.8363 74.5C21.5056 74.5 21.1883 74.6299 20.9524 74.8642L22.3616 76.2834C22.2215 76.4225 22.0316 76.5 21.8363 76.5V74.5ZM20.9524 74.8642L19.8294 75.9792L21.2386 77.3984L22.3616 76.2834L20.9524 74.8642ZM19.8294 75.9792C19.8294 75.9793 19.8292 75.9795 19.8289 75.9797C19.8287 75.9799 19.8283 75.9803 19.8279 75.9807C19.827 75.9816 19.8257 75.983 19.824 75.9846C19.8209 75.9877 19.8152 75.9935 19.8083 76.0008L21.2575 77.3792C21.2509 77.3861 21.2456 77.3915 21.2428 77.3942C21.2402 77.3968 21.238 77.399 21.2386 77.3984L19.8294 75.9792ZM19.8262 75.9824C19.3362 76.4718 19.3368 77.2666 19.8287 77.7551L21.238 76.3359C21.5326 76.6285 21.5329 77.1046 21.2395 77.3976L19.8262 75.9824ZM19.8286 77.755C20.0517 77.9766 20.3477 78.1047 20.6587 78.118L20.7445 76.1199C20.9281 76.1278 21.1052 76.204 21.2381 76.3361L19.8286 77.755ZM20.6059 78.1144C20.6403 78.1177 20.6748 78.1193 20.7094 78.1193V76.1193C20.7388 76.1193 20.7681 76.1207 20.7972 76.1236L20.6059 78.1144ZM20.7094 78.1193H20.7542V76.1193H20.7094V78.1193ZM19.7542 77.1193V77.9404H21.7542V77.1193H19.7542ZM19.7542 77.9404C19.7542 78.6619 20.3418 79.235 21.051 79.235V77.235C21.4329 77.235 21.7542 77.5438 21.7542 77.9404H19.7542ZM21.051 79.235H21.4905V77.235H21.051V79.235ZM21.4905 79.235C22.0809 79.235 22.5712 78.7579 22.5712 78.1549H20.5712C20.5712 77.6404 20.9893 77.235 21.4905 77.235V79.235ZM22.5712 78.1549V77.5112H20.5712V78.1549H22.5712ZM22.5712 77.5112C22.5712 77.9962 22.1774 78.3768 21.7067 78.3768V76.3768C21.0866 76.3768 20.5712 76.878 20.5712 77.5112H22.5712ZM21.7067 78.3768H21.9659V76.3768H21.7067V78.3768ZM21.9659 78.3768C21.495 78.3768 21.1013 77.996 21.1013 77.5112H23.1013C23.1013 76.8782 22.5862 76.3768 21.9659 76.3768V78.3768ZM21.1013 77.5112V78.1549H23.1013V77.5112H21.1013ZM21.1013 78.1549C21.1013 78.7579 21.5916 79.235 22.182 79.235V77.235C22.6833 77.235 23.1013 77.6404 23.1013 78.1549H21.1013ZM22.182 79.235H22.6216V77.235H22.182V79.235ZM22.6216 79.235C23.3308 79.235 23.9184 78.6618 23.9184 77.9404H21.9184C21.9184 77.5439 22.2397 77.235 22.6216 77.235V79.235ZM23.9184 77.9404V77.1193H21.9184V77.9404H23.9184ZM22.9184 78.1193H22.9599V76.1193H22.9184V78.1193ZM22.9599 78.1193C23.2907 78.1193 23.6079 77.9894 23.8438 77.7551L22.4346 76.336C22.5746 76.1969 22.7645 76.1193 22.9599 76.1193V78.1193ZM23.844 77.755C24.3362 77.266 24.3364 76.47 23.8447 75.9808L22.434 77.3985C22.1397 77.1056 22.1397 76.6289 22.4345 76.3361L23.844 77.755ZM22.3205 76.2227C22.4908 76.0535 22.7211 75.9591 22.9599 75.9591V77.9591C23.2479 77.9591 23.5246 77.8456 23.7297 77.6418L22.3205 76.2227ZM22.9599 75.9591H22.8377V77.9591H22.9599V75.9591ZM22.8377 75.9591C22.2475 75.9591 21.757 76.436 21.757 77.0392H23.757C23.757 77.5539 23.3387 77.9591 22.8377 77.9591V75.9591ZM21.757 77.0392V77.9404H23.757V77.0392H21.757ZM21.757 77.9404C21.757 77.4555 22.1507 77.0748 22.6216 77.0748V79.0748C23.2418 79.0748 23.757 78.5735 23.757 77.9404H21.757ZM22.6216 77.0748H22.2627V79.0748H22.6216V77.0748ZM23.2627 78.0748V77.5112H21.2627V78.0748H23.2627ZM23.2627 77.5112C23.2627 76.7899 22.6753 76.2165 21.9659 76.2165V78.2165C21.5839 78.2165 21.2627 77.9076 21.2627 77.5112H23.2627ZM21.9659 76.2165H21.7067V78.2165H21.9659V76.2165ZM21.7067 76.2165C20.9974 76.2165 20.4099 76.7898 20.4099 77.5112H22.4099C22.4099 77.9077 22.0886 78.2165 21.7067 78.2165V76.2165ZM20.4099 77.5112V78.0748H22.4099V77.5112H20.4099ZM21.4099 77.0748H21.051V79.0748H21.4099V77.0748ZM21.051 77.0748C21.5218 77.0748 21.9156 77.4554 21.9156 77.9404H19.9156C19.9156 78.5736 20.4309 79.0748 21.051 79.0748V77.0748ZM21.9156 77.9404V77.0392H19.9156V77.9404H21.9156ZM21.9156 77.0392C21.9156 76.436 21.4251 75.9591 20.8349 75.9591V77.9591C20.3338 77.9591 19.9156 77.5539 19.9156 77.0392H21.9156ZM20.8349 75.9591H20.7148V77.9591H20.8349V75.9591ZM20.7808 75.9613C20.7695 75.9605 20.7506 75.9594 20.7273 75.9591L20.6947 77.9588C20.6739 77.9584 20.6575 77.9575 20.6487 77.9569L20.7808 75.9613ZM20.7283 75.9591C20.9596 75.9631 21.1843 76.0558 21.3526 76.2231L19.9424 77.6414C20.1445 77.8423 20.4143 77.9539 20.6936 77.9588L20.7283 75.9591ZM21.3521 76.2226C21.7101 76.5782 21.7098 77.1569 21.3523 77.5122L19.9427 76.0934C19.5133 76.52 19.513 77.2149 19.9429 77.6418L21.3521 76.2226ZM20.6475 77.8028C20.8313 77.8028 21.0348 77.7514 21.2183 77.6239C21.3741 77.5156 21.4578 77.3898 21.4777 77.3602C21.4895 77.3428 21.4996 77.3262 21.4964 77.3313C21.4963 77.3314 21.494 77.3351 21.4911 77.3397C21.488 77.3446 21.4834 77.3517 21.4778 77.3602C21.4538 77.3959 21.4128 77.4521 21.3522 77.5123L19.9429 76.0931C19.8823 76.1533 19.8413 76.2096 19.8173 76.2453C19.8116 76.2538 19.807 76.2609 19.8039 76.2658C19.801 76.2704 19.7987 76.2741 19.7986 76.2742C19.7955 76.2793 19.8056 76.2628 19.8173 76.2453C19.8372 76.2157 19.9209 76.09 20.0767 75.9817C20.2602 75.8541 20.4637 75.8028 20.6475 75.8028V77.8028ZM21.3522 77.5123L21.3522 77.5123L19.943 76.0931L19.9429 76.0931L21.3522 77.5123ZM21.3522 77.5123L22.4757 76.3967L21.0665 74.9775L19.943 76.0931L21.3522 77.5123ZM22.4762 76.3962C22.3053 76.5662 22.0745 76.6603 21.8363 76.6603V74.6603C21.5488 74.6603 21.2718 74.7734 21.0661 74.9779L22.4762 76.3962ZM21.8363 76.6603C21.5978 76.6603 21.3674 76.566 21.1968 76.3967L22.6061 74.9775C22.4007 74.7735 22.124 74.6603 21.8363 74.6603V76.6603ZM21.1969 76.3967L22.3201 77.512L23.7293 76.0928L22.6061 74.9775L21.1969 76.3967ZM22.3201 77.512C22.3273 77.5192 22.3332 77.5248 22.3367 77.5281C22.3385 77.5298 22.3399 77.5312 22.3408 77.532C22.3412 77.5324 22.3416 77.5327 22.3418 77.5329C22.3419 77.5331 22.342 77.5331 22.3421 77.5332C22.3421 77.5332 22.3421 77.5333 22.3422 77.5333C22.3422 77.5333 22.3422 77.5333 22.3422 77.5333C22.3427 77.5338 22.34 77.5313 22.3369 77.5284C22.3336 77.5252 22.3278 77.5196 22.3206 77.5125L23.7299 76.0933C23.7227 76.0862 23.7167 76.0805 23.7133 76.0773C23.7115 76.0756 23.7101 76.0742 23.7092 76.0734C23.7088 76.073 23.7084 76.0726 23.7082 76.0724C23.708 76.0723 23.708 76.0722 23.7079 76.0722C23.7079 76.0722 23.7078 76.0721 23.7078 76.0721C23.7078 76.0721 23.7078 76.0721 23.7078 76.0721C23.7073 76.0716 23.71 76.0741 23.713 76.077C23.7164 76.0802 23.7222 76.0858 23.7293 76.0928L22.3201 77.512ZM22.3182 77.5101C21.963 77.1549 21.9629 76.5779 22.3203 76.2229L23.7299 77.6416C24.1589 77.2154 24.159 76.5225 23.7324 76.0958L22.3182 77.5101Z" fill="white" mask="url(#path-10-inside-4)"/>
<defs>
<clipPath id="clip0">
<rect width="2.7541" height="2.73504" fill="white" transform="translate(34.9182 75.5)"/>
</clipPath>
</defs>
</svg>
