<svg width="168" height="110" viewBox="0 0 168 110" fill="none" xmlns="http://www.w3.org/2000/svg">
<path d="M102 101.315C101.995 100.875 101.918 100.435 101.767 100H83.0045H64.2418C64.0884 100.435 64.0075 100.875 64 101.315C63.9999 102.456 64.4913 103.585 65.4461 104.639C66.4009 105.692 67.8004 106.65 69.5647 107.456C71.329 108.263 73.4236 108.902 75.7288 109.339C78.0341 109.775 80.5048 110 83 110C85.4952 110 87.9659 109.775 90.2712 109.339C92.5764 108.902 94.671 108.263 96.4353 107.456C98.1996 106.65 99.5991 105.692 100.554 104.639C101.509 103.585 102 102.456 102 101.315Z" fill="black"/>
<rect x="2" y="2" width="164" height="94" stroke="black" stroke-width="4" stroke-linejoin="round"/>
<circle cx="84" cy="2" r="1" fill="#FFF"/>
<path d="M79 96C79 95.4477 79.4477 95 80 95H88C88.5523 95 89 95.4477 89 96V96C89 96.5523 88.5523 97 88 97H80C79.4477 97 79 96.5523 79 96V96Z" fill="#FFF"/>
</svg>
