<svg width="983" height="1018" viewBox="0 0 983 1018" fill="none" xmlns="http://www.w3.org/2000/svg">
  <path fill-rule="evenodd" clip-rule="evenodd"
    d="M157.515 115.09C157.906 109 158.445 103.65 158.713 103.2C159.892 101.225 160.502 104.3 160.528 112.35C160.552 119.674 160.986 121.946 163.328 127.017C164.852 130.317 168.031 135.042 170.393 137.517C172.755 139.992 178.215 147.192 182.527 153.517C192.579 168.264 202.028 179.728 213.433 191.017C226.099 203.553 246.244 219.606 247.604 218.246C247.859 217.991 248.323 213.336 248.635 207.9C250.002 184.101 241.779 167.659 220.609 151.856C212.785 146.016 210.612 143.934 212.086 143.693C213.174 143.515 216.176 144.392 218.759 145.642C223.438 147.907 227.225 151.37 240.5 165.521L247.5 172.982L247.811 165.5C248.36 152.321 243.297 137.279 235.354 128.487C231.281 123.978 231.779 123.575 237.453 126.789C250.152 133.982 254.986 150.988 255 188.517C255.009 213.517 256.421 224.617 261.806 242.017C263.82 248.527 269.023 258.485 275.389 268.017C283.092 279.55 286.319 288.407 287.866 302.262C289.965 321.065 286.012 341.961 275.572 367.247C274.157 370.674 273 374.955 273 376.76C273 382.304 278.738 389.515 287.751 395.296C292.088 398.079 297.406 402.348 299.568 404.784C301.731 407.22 304.952 410.259 306.727 411.536C309.453 413.499 310.339 413.684 312.438 412.727C317.291 410.516 320.543 391.481 318.997 374.333C318.486 368.659 318.052 357.626 318.034 349.815C318.003 336.856 318.245 334.883 320.804 327.269C323.517 319.196 327.364 312.683 340.263 294.325C343.236 290.095 347.131 283.662 348.919 280.031L352.169 273.428L349.676 270.222C348.305 268.459 344.658 264.092 341.572 260.517C334.71 252.567 329.862 243.133 329.223 236.486C328.747 231.531 330.559 222.517 332.03 222.517C332.454 222.517 332.965 226.455 333.166 231.267C333.762 245.555 339.369 254.962 352.318 263.399L358.587 267.483L381.543 257.998C394.17 252.782 412.825 244.352 423 239.265L441.5 230.017L441.152 222.451C440.81 215.012 440.871 214.79 444.801 209.18C448.895 203.335 452.518 195.184 462.582 169.18C465.74 161.02 469.939 151.678 471.912 148.421C475.911 141.821 483.6 132.517 485.055 132.517C487.453 132.517 485.543 137.862 480.903 144.13C478.1 147.918 474.879 152.817 473.744 155.017C471.431 159.503 466.022 174.818 466.552 175.381C467.291 176.166 474.001 171.259 477.532 167.35C482.25 162.128 486.154 153.5 488.994 142.017C491.748 130.883 493.504 126.517 495.228 126.517C496.302 126.517 496.401 128.584 495.746 137.267C494.871 148.854 492.592 157.419 487.923 166.669C486.3 169.885 485.161 172.517 485.393 172.517C485.625 172.517 488.114 171.324 490.924 169.867C493.734 168.409 496.322 167.506 496.676 167.86C497.031 168.214 496.755 170.392 496.063 172.7C494.356 178.398 484.878 187.603 473.783 194.339C459.465 203.032 453.334 210.375 452.232 220.147L451.758 224.358L456.372 225.05C471.284 227.286 480.394 219.681 493.908 193.714C501.693 178.755 508.147 169.331 509.607 170.791C509.978 171.162 505.044 182.098 498.641 195.094C492.238 208.089 487 218.833 487 218.969C487 219.106 494.313 215.503 503.25 210.963C520.21 202.348 530.194 198.495 535.415 198.549C538.396 198.58 538.433 198.633 536.5 200.13C533.84 202.19 523.528 207.419 518.917 209.046C513.482 210.964 506.837 215.423 506.289 217.521C505.703 219.76 499.727 222.402 482 228.256C474.575 230.708 459.05 236.434 447.5 240.981C435.95 245.528 422.9 250.529 418.5 252.093C405.28 256.794 384.189 267.909 374.502 275.279C363.197 283.881 355.377 293.142 349.516 304.867C345.883 312.135 344.135 314.515 341.02 316.437C332.596 321.635 327.38 339.08 328.547 358.149C329.749 377.784 334.615 396.268 339.791 400.864C341.635 402.5 342.465 402.583 347.095 401.59C363.676 398.034 375.681 387.895 384.481 370.017C392.495 353.735 395.269 343.507 395.233 330.376C395.217 324.523 394.903 318.785 394.534 317.626C393.621 314.746 395.828 314.878 396.897 317.767C397.676 319.87 397.778 319.8 398.461 316.693C399.564 311.676 404.168 307.16 415.156 300.322C422.249 295.907 426.979 292.032 431.661 286.8C435.271 282.767 439.186 278.942 440.362 278.3C441.538 277.658 449.718 276.605 458.539 275.96C467.551 275.301 471.913 275 475.924 273.652C479.809 272.347 483.365 270.06 490.5 265.513C495.45 262.359 504.09 257.231 509.701 254.119C525.734 245.224 531.387 239.128 537.385 224.267C539.501 219.022 541 219.564 541 225.575V230.634L546.97 226.04C553.18 221.262 560.237 217.577 563.25 217.539C566.546 217.498 564.935 219.021 557.122 223.33C547.698 228.528 542.478 232.691 540.438 236.636C538.074 241.208 539.23 241.841 548.89 241.267C559.05 240.664 566.898 237.821 579.279 230.261C592.619 222.115 602.254 218.097 598.976 222.046C598.278 222.887 592.75 227.499 586.69 232.296L575.673 241.017L579.086 241.35C587.796 242.199 599.994 237.849 613.392 229.116C618.117 226.036 622.295 223.517 622.678 223.517C624.171 223.517 617.155 229.993 610.5 234.758L603.5 239.769L608 239.079C610.475 238.699 621.95 237.986 633.5 237.494C652.26 236.694 662.98 235.326 668.25 233.057C670.51 232.083 670.51 233.753 668.25 235.762C663.58 239.913 659.139 240.697 638.5 241.01C619.394 241.3 613.885 241.766 590 245.111C573.688 247.396 546.672 253.113 533.474 257.073C526.888 259.048 518.8 261.266 515.5 262.002C503.437 264.689 493.385 269.011 483.15 275.91C480.207 277.894 477.039 279.517 476.111 279.517C475.183 279.517 472.64 280.448 470.461 281.585C468.283 282.723 463.35 284.791 459.5 286.182C444.795 291.495 430.759 299.033 425.104 304.653C419.588 310.137 414.649 319.02 413.504 325.517L412.887 329.017L428.999 329.357C444.715 329.689 445.243 329.633 450.502 327.06C458.138 323.324 463.159 317.016 471.573 300.586C473.666 296.498 475.564 293.71 475.791 294.389C476.655 296.981 470.857 312.549 466.742 318.688C458.934 330.337 450.106 334.3 431.221 334.633C424.774 334.747 417.587 335.244 415.25 335.737L411 336.635V341.894C411 351.801 405.695 364.536 396.578 376.517C394.275 379.542 390.343 384.717 387.838 388.017C385.334 391.317 382.218 395.817 380.915 398.017L378.545 402.017L381.523 400.123C398.577 389.273 410.803 378.748 414.239 371.959C415.058 370.341 416.756 365.889 418.013 362.065C420.679 353.952 426.794 346.665 433.98 343.034C441.988 338.989 448.869 338.146 472.29 338.343C489.611 338.489 494.637 338.231 496.79 337.086C500.849 334.928 506.392 329.306 517.671 315.909C531.742 299.196 537.874 294.446 548.603 291.952C554.301 290.627 556.045 291.609 551.073 293.342C542.907 296.188 529.834 306.98 520.073 318.931C512.312 328.434 504 339.32 504 339.981C504 341.033 510.677 340.492 516.54 338.965C525.023 336.756 529.961 333.532 540.918 323.047C546.217 317.976 551.592 313.271 552.862 312.591C557.245 310.245 556.379 312.593 551.186 317.136C543.389 323.956 542.736 326.132 549.756 321.904C557.962 316.962 566.878 314.451 578.5 313.81L588.5 313.258L598 306.553C614.645 294.805 626.395 288.882 635 287.902L639.5 287.39L631.5 291.446C621.984 296.27 608.012 307.859 603.87 314.364L600.907 319.017L604.858 320.763C612.105 323.966 621.122 325.778 626.605 325.134C629.453 324.799 634.598 324.819 638.038 325.179L644.293 325.833L639.522 328.257C631.749 332.208 620.837 331.803 602.253 326.876C580.197 321.028 572.224 320.325 565.018 323.594C559.652 326.028 557.298 328.04 555.303 331.897C553.4 335.578 554.808 336.63 559.852 335.296C561.858 334.765 565.075 334.103 567 333.824L570.5 333.318L567.764 336.131C565.256 338.709 564.251 338.991 555.764 339.494C547.54 339.983 545.452 340.533 537.158 344.396L527.816 348.748L518.658 348.164C513.621 347.843 506.8 347.202 503.5 346.74C500.2 346.278 485.35 345.959 470.5 346.032C445.306 346.156 443.128 346.311 437.934 348.344C428.768 351.932 424.465 358.184 419.951 374.464C417.837 382.091 416.687 384.131 408.109 395.464C395.605 411.986 387.543 419.89 379.131 423.874C372.94 426.806 371.839 427.002 362.539 426.819C356.638 426.702 352.053 427.058 351.289 427.692C346.489 431.676 356.059 449.599 371.382 465.321C375.297 469.337 380.007 473.564 381.849 474.713L385.197 476.802L389.849 471.889C401.21 459.89 404.956 458.599 431.856 457.411C453.913 456.436 461.459 455.142 471.417 450.627C481.337 446.129 486.421 442.253 500.301 428.605C512.295 416.811 522 404.164 522 400.327C522 397.836 527.504 390.124 532.284 385.916C537.999 380.886 545.122 377.05 560 370.993C583.178 361.556 593.504 354.358 598.413 344.213C600.388 340.13 600.93 339.553 600.942 341.517C600.976 347.414 593.541 358.847 586.595 363.578C584.625 364.919 583.007 366.467 582.998 367.017C582.959 369.55 570.729 375.805 561.248 378.142C555.887 379.463 551.143 380.657 550.706 380.795C550.27 380.933 550.85 382.052 551.995 383.282C554.823 386.317 561.004 386.227 570.193 383.017C575.975 380.997 577.5 380.396 577.886 380.824C578.065 381.021 578 381.439 578 382.038C578 382.875 576.9 384.061 575.555 384.674C574.21 385.287 572.874 386.402 572.586 387.152C571.731 389.382 580.558 388.786 588.5 386.079C592.35 384.766 595.723 383.914 595.997 384.184C596.27 384.455 594.845 386.187 592.831 388.033C588.247 392.234 580.757 394.517 571.568 394.516C563.859 394.514 549.225 392.247 544.574 390.333C542.039 389.289 541.504 389.369 540.574 390.928C539.983 391.918 538.263 394.317 536.75 396.26C533.274 400.725 533.039 403.971 536.25 403.179C539.382 402.408 555.725 399.887 566.5 398.514C594.791 394.908 607.91 390.749 617.428 382.372C621.804 378.52 627 369.507 627 365.769C627 364.739 628.575 360.7 630.5 356.792C632.425 352.885 634 349.236 634 348.683C634 348.13 636.524 345.279 639.61 342.347C645.702 336.559 651.997 328.178 656.758 319.517C660.866 312.045 667.319 292.389 670.055 279.017C671.293 272.967 672.687 267.59 673.153 267.067C673.626 266.537 674 269.143 674 272.964C674 277.813 673.131 282.524 671.02 289.114C669.381 294.231 667.748 300.24 667.392 302.467C666.806 306.134 666.945 306.517 668.872 306.517C672.81 306.517 678.322 299.61 681.856 290.246C685.688 280.092 687.63 277.907 686.683 284.812C685.804 291.229 682.538 300.112 679.283 304.944C677.773 307.184 669.546 315.992 661 324.517C652.453 333.042 644.64 341.509 643.636 343.332L641.81 346.647L646.848 344.094C655.244 339.84 666.376 336.561 678.924 334.648L690.84 332.831L699.17 324.168C706.086 316.976 708.009 315.515 710.5 315.558L713.5 315.611L710 318.314C697.371 328.067 698.061 333.229 711 325.795C713.475 324.372 720 318.856 725.5 313.536C731 308.216 736.743 302.929 738.262 301.787L741.024 299.71L734.71 295.204C728.76 290.958 725.018 287.517 726.351 287.517C726.678 287.517 728.936 288.483 731.367 289.665C736.701 292.256 739 291.65 739 287.654C739 286.044 739.99 281.643 741.199 277.872C743.886 269.495 744.843 272.199 743.015 283.005C742.159 288.067 742.127 290.789 742.9 292.793L743.971 295.57L751.57 291.543C760.028 287.062 761.477 286.76 762.84 289.195C763.718 290.765 764.068 290.763 768.239 289.17C770.692 288.233 774.454 285.987 776.599 284.179C782.143 279.508 785.223 277.517 786.91 277.517C789.062 277.517 783.601 282.974 776.779 287.64C773.632 289.792 764.857 294.532 757.279 298.173C736.78 308.022 731.557 312.059 717.066 329.251C709.867 337.792 707.3 339.058 690.5 342.356C682.25 343.976 672.858 345.614 669.629 345.996C662.338 346.859 656.564 348.852 652.569 351.886C650.881 353.167 647.787 354.533 645.694 354.922C643.208 355.384 640.541 356.976 638.002 359.515C634.161 363.356 633.36 365.298 630.952 376.593C627.405 393.24 611.235 402.192 578.5 405.633C572.45 406.269 566.671 407.091 565.658 407.459C563.142 408.374 580.762 416.624 591.5 419.558C601.648 422.33 620.471 423.283 630.422 421.527C638.819 420.045 651.46 415.609 657.692 411.957C660.148 410.518 662.402 409.585 662.701 409.885C663.738 410.922 652.477 421.73 648 423.993C645.525 425.244 641.115 426.774 638.201 427.393C631.722 428.767 604.461 428.847 589.5 427.535C573.481 426.131 544.743 425.572 535.493 426.486C531.09 426.921 524.603 428.086 521.079 429.075L514.671 430.873L525.085 433.601C536.544 436.603 542.579 439.029 560.5 447.836C583.537 459.157 592.982 462.038 604.609 461.292C610.537 460.911 613.506 460.077 619.536 457.097C628.756 452.54 641.227 443.27 647.58 436.252C654.111 429.039 662.285 416.215 664.942 409.017C669.602 396.391 681.53 377.893 690.25 369.77C707.54 353.664 714.753 349.054 726.5 346.602C740.765 343.626 755 338.203 755 335.746C755 334.907 752.521 331.925 749.492 329.119C746.462 326.313 743.987 323.455 743.992 322.767C744.004 320.859 745.251 321.29 747.949 324.132C749.297 325.552 753.049 328.513 756.287 330.712C762.169 334.706 762.178 334.708 763.662 332.589C766.324 328.789 772.763 321.646 778.189 316.475C787.548 307.555 797.759 301.468 807.25 299.15C812.199 297.942 810.131 300.11 804.702 301.822C799.875 303.343 794.26 307.111 795.288 308.138C795.519 308.37 801.286 307.186 808.104 305.508C839.993 297.658 876.672 290.167 877.971 291.238C880.048 292.949 848.176 302.574 832.5 304.969C808.123 308.694 774.062 329.642 768.823 344.131L767.598 347.517L760.549 347.525C745.774 347.54 729.554 352.017 716.587 359.659C708.292 364.547 693.261 379.179 687.456 388.017C685.288 391.317 680.576 399.867 676.984 407.017C669.079 422.752 662.07 433.651 651.055 447.334C637.148 464.611 627.435 471.405 613.652 473.494C601.302 475.366 587.491 472.732 568.635 464.908C533.547 450.349 526.427 448.421 509.5 448.891L498.5 449.196L493.125 453.107C476.33 465.324 476.276 465.439 486.5 467.191C501.391 469.741 506.676 470.884 511.5 472.596C516.121 474.236 516.26 474.376 513.329 474.444C511.586 474.484 503.711 473.437 495.829 472.116C464.421 466.853 453.211 466.558 436.225 470.548C423.123 473.625 418.578 476.801 414.801 485.517C413.334 488.9 412.855 492.273 412.867 499.108C412.892 513.319 417.076 528.12 425.771 544.75C430.867 554.498 432.143 554.808 434.162 546.789C436.474 537.607 455.507 517.371 469.597 509.113C495.739 493.794 539.775 484.517 586.357 484.517C598.719 484.517 606.731 484.995 611.5 486.019C615.35 486.845 621.65 488.194 625.5 489.018C635.554 491.169 639.219 490.97 642.308 488.107C643.738 486.782 647.599 480.097 650.888 473.251C655.61 463.42 657.842 459.946 661.501 456.725C665.522 453.185 671.35 450.533 672.525 451.708C672.735 451.918 670.79 453.651 668.203 455.558C664.695 458.146 661.774 461.914 656.705 470.393C652.967 476.645 650.085 481.936 650.301 482.151C650.739 482.589 654.855 480.945 664.799 476.359C679.213 469.712 687.727 466.316 692.984 465.117C698.997 463.746 699.239 463.367 700.499 453.402C700.82 450.864 701.738 447.939 702.54 446.902C703.857 445.199 703.927 445.452 703.268 449.517C702.866 451.992 702.529 455.817 702.519 458.017C702.5 461.951 702.558 462.014 705.966 461.846C708.573 461.717 728 452.949 728 451.901C728 451.8 726.363 449.31 724.362 446.367C719.219 438.804 714.819 429.095 714.251 424.055C713.351 416.07 717.846 408.517 723.497 408.517C725.538 408.517 725.78 407.901 726.393 401.133C726.761 397.072 727.965 390.659 729.069 386.883C730.172 383.107 731.935 376.119 732.987 371.355C735.36 360.606 737.435 355.517 739.443 355.517C741.216 355.517 746.078 361.846 749.586 368.72C752.467 374.366 754.468 374.992 769.5 374.955C783.972 374.918 784.134 374.841 790.505 364.966C793.524 360.286 796.716 356.18 797.598 355.841C800.159 354.858 801.178 357.27 805.065 373.517C806.051 377.642 807.576 383.492 808.452 386.517C809.328 389.542 810.326 395.729 810.671 400.267C811.253 407.931 811.455 408.517 813.514 408.517C816.765 408.517 820.684 412.031 822.051 416.17C824.74 424.319 821.228 434.426 810.533 449.322C807.056 454.163 802.702 461.24 800.856 465.048C799.01 468.856 795.571 473.992 793.213 476.462L788.926 480.952L791.213 482.759C793.84 484.833 794.2 484.791 810 480.558C816.447 478.831 823.258 477.609 825.5 477.778C829.472 478.075 829.479 478.083 826.5 478.884C815.66 481.797 797.094 487.966 795 489.351C793.625 490.26 791.407 491.007 790.072 491.011C788.175 491.016 787.457 491.729 786.793 494.267C785.768 498.187 783.752 498.464 782.132 494.908C781.182 492.822 780.497 492.44 778.722 493.003C777.5 493.391 771.62 493.862 765.655 494.051C756.83 494.33 754.577 494.713 753.557 496.108C752.079 498.129 750 497.199 750 494.517C750 492.005 749.444 491.747 740.339 490.035C723.298 486.83 710.914 486.097 697.903 487.524C687.082 488.711 684.123 489.324 664.947 494.352C649.383 498.432 639.896 499.027 621.11 497.097C588.438 493.742 566.628 495.716 536.5 504.752C526.829 507.653 523.104 509.571 501.176 522.941C485.869 532.275 473.498 545.783 468.418 558.709C459.544 581.29 453.234 621.015 451.033 668.145C450.465 680.316 450.018 691.566 450.039 693.145L450.078 696.017L451.44 692.888C452.189 691.167 454.86 687.611 457.376 684.986C460.922 681.284 462.727 680.165 465.409 680.002C467.311 679.886 469.636 679.024 470.574 678.086C475.336 673.324 482.756 670.9 495.5 669.942C505.7 669.176 517.044 667.112 523.751 664.803C528.63 663.123 529.726 662.072 539.251 649.917C552.439 633.088 554.962 630.146 555.63 630.813C555.931 631.115 552.087 637.321 547.089 644.606C542.09 651.891 538.202 658.053 538.449 658.299C538.695 658.545 545.108 655.371 552.698 651.244C576.076 638.535 590.608 631.791 591.878 633.061C592.685 633.869 574.533 648.517 572.725 648.517C572.439 648.517 570.246 649.667 567.852 651.072L563.5 653.627L578.25 653.308C586.362 653.133 593 653.333 593 653.753C593 654.173 592.212 654.526 591.25 654.537C590.288 654.548 581.175 655.42 571 656.474C552.672 658.372 552.398 658.436 541.5 663.356C535.45 666.088 522.4 671.115 512.5 674.529C502.6 677.942 490 683.021 484.5 685.814C467.584 694.407 456 708.138 456 719.595C456 721.247 454.987 723.973 453.75 725.654C451.585 728.595 451.506 729.436 451.671 747.864C451.902 773.712 454.211 803.236 458.174 831.017C463.147 865.882 466.573 882.339 473.684 905.517C479.597 924.789 492.567 955.517 494.789 955.517C495.209 955.517 499.141 955.099 503.526 954.589C507.912 954.079 513.975 953.422 517 953.131C520.025 952.839 529.925 951.717 539 950.637C572.551 946.645 583.057 946.068 621 946.134C658.616 946.199 683.565 947.655 722.5 952.059C729.65 952.867 740 953.989 745.5 954.551C751 955.113 757.075 955.772 759 956.015C764.125 956.663 796.046 959.343 806.5 960.004C811.45 960.317 817.75 960.781 820.5 961.035C823.25 961.289 833.15 961.951 842.5 962.506C851.85 963.062 866.7 963.96 875.5 964.503C884.3 965.046 899.375 965.945 909 966.501C918.625 967.056 928.075 967.729 930 967.995C931.925 968.261 936.875 968.714 941 969C954.681 969.949 974.439 971.579 978.75 972.113L983 972.64V995.078V1017.52H491.5H0V1008.52C0 1001.24 0.28399 999.517 1.47699 999.517C2.28999 999.517 12.978 998.394 25.227 997.022C37.477 995.65 52 994.046 57.5 993.458C63 992.87 72.9 991.73 79.5 990.925C86.1 990.12 95.325 989 100 988.436C116.591 986.434 126.631 984.925 153 980.471C160.784 979.156 182.297 973.858 190 971.359C193.575 970.2 201.675 966.904 208 964.036C228.176 954.886 233.149 953.925 265 953.014C276.275 952.691 287.3 952.248 289.5 952.029C291.7 951.811 304.158 951.322 317.184 950.945L340.868 950.258L347.346 940.528C350.909 935.177 354.926 928.598 356.273 925.908C362.52 913.43 367.933 889.8 370.45 864.017C370.718 861.267 371.382 854.517 371.925 849.017C374.574 822.189 375.235 797.447 374.651 747.017C374.32 718.417 373.8 692.317 373.495 689.017C373.191 685.717 372.498 676.717 371.955 669.017C370.687 651.024 368.336 636.895 365.914 632.71C364.861 630.891 364 628.599 364 627.616C364 623.876 359.837 613.964 356.426 609.583C348.041 598.816 335.077 591.412 308.462 582.19C292.218 576.562 277.326 570.734 271.005 567.532C269.077 566.556 265.7 565.47 263.5 565.119C260.145 564.583 230.091 561.566 227.75 561.529C227.337 561.522 227 561.15 227 560.701C227 560.252 233.413 560.065 241.25 560.286C249.504 560.519 253.45 560.692 253.667 559.876C253.869 559.114 250.823 557.491 245 554.251C238.569 550.672 228 542.14 228 540.527C228 538.64 244.264 545.926 261.5 555.533C272.96 561.921 282.005 566.329 281.358 565.212C280.977 564.555 277.004 558.604 272.528 551.988C264.394 539.963 262.984 537.917 263.316 537.579C263.398 537.495 263.588 537.517 263.809 537.517C264.319 537.517 270.634 544.92 277.842 553.969L290.947 570.42L297.368 572.404C300.9 573.494 305.524 574.667 307.645 575.009C317.919 576.667 326.201 579.155 333.39 582.743C342.097 587.088 342.947 586.891 342.997 580.517C343.037 575.331 345.471 567.095 348.483 561.956C351.184 557.347 359.075 552.197 360.728 553.965C361.153 554.419 360.921 554.997 360.213 555.25C357.438 556.239 352.812 560.965 350.845 564.82C347.996 570.406 347.332 578.982 349.371 583.863L350.975 587.702L363.579 581.034C370.511 577.367 376.393 574.577 376.651 574.835C376.909 575.093 372.485 579.289 366.82 584.16L356.519 593.017L361.168 593.917C366.549 594.96 366.955 595.59 370.046 607.697C373.742 622.172 376.225 624.398 379.519 616.19C382.194 609.525 382.963 596 382.373 566.017C381.77 535.381 381.306 532.476 375.714 524.342C373.946 521.771 369.017 516.032 364.76 511.59C353.861 500.217 348.632 493.566 346.461 488.317C344.777 484.245 343.925 483.494 338.136 480.972L331.686 478.162L312.593 480.458C302.092 481.721 287.58 483.103 280.344 483.529C262.935 484.554 258.009 485.293 249.656 488.134C240.272 491.326 230.38 491.309 217.654 488.081C212.373 486.741 207.29 485.219 206.358 484.697C204.93 483.898 205.122 483.661 207.582 483.185C209.187 482.874 216.575 482.359 224 482.04C277.484 479.741 299.737 475.996 316.91 466.405C327.292 460.608 327.614 459.789 322.986 450.991C318.166 441.828 312.875 436.359 295.031 422.1C259.121 393.403 242.415 384.517 224.37 384.517C216.451 384.517 212.779 385.573 198.079 392.077C192.205 394.676 187.364 396.045 182.079 396.601C177.91 397.04 170.9 398.505 166.5 399.858C134.142 409.801 108.976 422.779 93.75 437.375C90.038 440.933 87 443.422 87 442.905C87 441.503 97.537 428.517 101.795 424.67C107.603 419.423 116.963 412.984 123.25 409.911C126.413 408.365 129 406.791 129 406.412C129 405.04 121.805 399.452 116.721 396.876C109.937 393.438 97.595 392.583 87.849 394.877C75.18 397.859 58.512 406.995 45.25 418.226C42.363 420.671 40 422.287 40 421.818C40 420.57 52.75 408.294 58 404.487C60.475 402.692 61.741 401.489 60.813 401.815C59.884 402.14 57.278 402.904 55.02 403.512C52.762 404.12 45.972 407.988 39.93 412.109C27.124 420.843 24.202 422.237 28.5 417.563C31.995 413.762 42.011 406.834 53.858 400.023C63.721 394.352 63.597 394.152 48.846 391.946C37.425 390.238 33.274 388.638 28.885 384.248C24.872 380.235 26.019 379.496 30.19 383.407C36.786 389.592 46.602 391.216 64.5 389.084C78.711 387.391 96.212 387.108 102.5 388.471C117.381 391.694 123.445 392.521 135.689 392.996C143.285 393.291 148.825 393.236 148 392.873C147.175 392.511 142.225 390.213 137 387.768C131.775 385.323 126.488 382.927 125.25 382.444C124.012 381.962 123 380.88 123 380.042C123 378.07 123.54 378.116 128.481 380.508C141.534 386.827 172.805 388.972 188.455 384.622C196.138 382.486 206.994 377.402 211.85 373.666L214.2 371.858L208.306 369.709C201.945 367.39 195.629 363.266 188.807 356.98C186.438 354.798 180.225 349.21 175 344.563C158.372 329.775 154.637 325.319 147.811 312.129C140.501 298.001 135.95 292.603 128.727 289.492C122.947 287.002 108.603 284.535 99.838 284.524C92.078 284.514 79.515 281.987 74.669 279.461C68.601 276.298 51.988 263.254 46.103 257.033C43.235 254 39.94 249.381 38.782 246.768C36.41 241.417 35.345 230.285 36.496 222.851C37.336 217.421 37.42 217.534 40.922 228.844C48.106 252.038 74.25 270.42 100.168 270.5C110.542 270.531 111.034 269.421 104.5 260.729C102.025 257.436 100 254.201 100 253.54C100 252.879 94.927 247.091 88.727 240.677C73.646 225.077 63.812 213.683 56.149 202.929C49.398 193.456 42.65 181.068 43.253 179.257C43.883 177.367 58.466 192.889 68.103 205.707C76.943 217.466 91.176 234.675 91.66 234.19C91.786 234.064 91.458 232.173 90.932 229.989C85.628 207.998 84.833 202.587 84.323 185.017C84.023 174.693 84.204 165.972 84.746 164.566C85 163.908 85.1777 163.345 85.3688 163.341C85.9473 163.327 86.6487 168.431 89.963 191.517C92.45 208.841 96.896 226.015 102.647 240.517C109.248 257.158 116 269.284 116 264.495C116 263.932 119.803 261.019 124.451 258.02C129.099 255.022 133.374 251.686 133.951 250.608C135.316 248.057 135.298 240.942 133.919 238.366C133.324 237.255 133.089 236.095 133.395 235.789C134.346 234.838 137.244 237.86 138.684 241.304C140.803 246.374 139.029 250.73 130.045 262.517C122.791 272.033 122.203 273.134 123.771 274.264C124.722 274.949 131.052 279.674 137.838 284.764C164.965 305.11 170.552 308.5 183.18 312.281L189.86 314.281L194.939 311.767C198.765 309.873 201.729 309.224 206.958 309.135C214.884 309 218.858 310.97 212.63 311.947C210.634 312.261 207.457 312.756 205.571 313.049C203.686 313.341 201.132 314.399 199.896 315.4C197.657 317.213 197.671 317.221 204.075 317.922C212.19 318.81 217.715 320.247 218.616 321.704C219.616 323.323 200.566 322.038 185.48 319.47C178.891 318.348 171.787 317.162 169.694 316.834L165.888 316.239L168.94 321.415C182.064 343.673 202.051 360.015 225.361 367.546C229.009 368.724 234.358 370.992 237.247 372.585C245.506 377.138 253.182 376.34 258.641 370.362C260.82 367.976 265.247 354.883 267.551 344.017C268.25 340.717 269.632 335.317 270.621 332.017C272.006 327.395 272.429 322.457 272.46 310.517C272.511 290.778 271.797 289.01 263.345 287.954C257.127 287.177 244.514 288.715 234 291.533C220.481 295.155 218.187 294.942 224.492 290.648C233.601 284.445 251.708 281.032 263.696 283.259L268.891 284.224L267.026 280.621C264.488 275.715 257.101 268.841 247.5 262.449C238.112 256.2 230 248.891 230 246.684C230 245.606 231.027 246.12 233.33 248.352C236.755 251.672 245.294 255.514 249.261 255.521C250.492 255.523 252.931 256.397 254.679 257.463L257.858 259.401L256.365 254.209C253.903 245.643 248.657 235.503 242.2 226.832C220.475 197.658 175.037 177.659 113.048 169.987C106.199 169.139 100.416 168.267 100.198 168.048C99.339 167.19 101.405 165.246 104.59 163.915C111.073 161.206 116.997 162.125 137.742 169.06C148.507 172.659 157.92 175.471 158.66 175.31C160.9 174.822 148.052 160.412 143.297 158.079C138.061 155.51 137.825 154.22 142.75 155.086C149.716 156.311 154.465 159.178 164 167.91C174.141 177.198 183.821 182.907 188.475 182.345C191.14 182.023 190.935 181.633 177.616 161.714C170.15 150.547 162.413 137.98 160.423 133.787L156.805 126.162L157.515 115.09ZM749.813 383.2C750.534 383.489 751.397 383.453 751.729 383.121C752.061 382.789 751.471 382.553 750.417 382.596C749.252 382.644 749.015 382.881 749.813 383.2ZM784.75 383.179C785.438 383.457 786.563 383.457 787.25 383.179C787.938 382.902 787.375 382.675 786 382.675C784.625 382.675 784.063 382.902 784.75 383.179ZM797.25 404.645C798.213 403.89 799 403.102 799 402.895C799 402.072 798.179 402.601 796.872 404.267C795.629 405.853 795.664 405.888 797.25 404.645ZM766 408.017C766.55 407.677 767 407.201 767 406.958C767 406.715 766.55 406.517 766 406.517C765.45 406.517 765 406.994 765 407.576C765 408.158 765.45 408.357 766 408.017ZM736.022 465.017C734.709 461.717 732.989 458.004 732.202 456.767C730.5 454.092 730.353 454.09 726.5 456.68C718.591 461.996 703.485 467.942 677 476.164C669.025 478.639 662.111 481.043 661.636 481.505C660.294 482.81 671.286 483.826 678.448 483.06C681.988 482.68 689.073 481.009 694.192 479.345C710.461 474.058 718.834 474.499 736.673 481.586C743.726 484.388 744.21 484.452 746.319 482.861L748.539 481.187L743.475 476.102C740.154 472.767 737.589 468.951 736.022 465.017ZM768.5 488.517C770.29 488.517 772.315 487.842 773 487.017C774.082 485.713 773.493 485.517 768.5 485.517C763.507 485.517 762.918 485.713 764 487.017C764.685 487.842 766.71 488.517 768.5 488.517Z"
    fill="black" />
  <path d="M768.961 415.667L775.062 404C770.639 401.844 768.039 401.411 762.938 404L768.961 415.667Z" fill="orange" />
  <circle cx="786" cy="395" r="15" fill="orange" />
  <circle cx="751" cy="395" r="15" fill="orange" />
  <circle cx="751" cy="395" r="10" fill="#7F3239" />
  <circle cx="751" cy="395" r="10" fill="#7F3239" />
  <circle cx="751" cy="395" r="10" fill="#7F3239" />
  <circle cx="786" cy="395" r="10" fill="#7F3239" />
  <circle cx="786" cy="395" r="10" fill="#7F3239" />
  <circle cx="786" cy="395" r="10" fill="#7F3239" />
</svg>