<svg width="68" height="60" viewBox="0 0 68 60" fill="none" xmlns="http://www.w3.org/2000/svg">
<g filter="url(#filter0_d)">
<path d="M55.2695 43.6359L27.8781 43.6667L14.3723 52.8442C13.1062 53.7046 11.4521 52.5359 11.8331 51.0502L13.7224 43.6826L8.77626 43.6881C5.05485 43.6923 2.03469 40.6694 2.03059 36.9361L2 9.68266C1.99579 5.94942 5.00915 2.91977 8.73055 2.91555L55.2237 2.86329C58.9451 2.85907 61.9652 5.88204 61.9694 9.61528L62 36.8688C62.0043 40.6019 58.9909 43.6316 55.2695 43.6359V43.6359Z" fill="url(#paint0_linear)"/>
<path d="M17.5333 27.4158C19.7773 27.4158 21.5965 25.5909 21.5965 23.3398C21.5965 21.0887 19.7773 19.2638 17.5333 19.2638C15.2893 19.2638 13.4702 21.0887 13.4702 23.3398C13.4702 25.5909 15.2893 27.4158 17.5333 27.4158Z" fill="white"/>
<path d="M32.4381 27.399C34.6821 27.399 36.5012 25.5741 36.5012 23.323C36.5012 21.0719 34.6821 19.247 32.4381 19.247C30.1941 19.247 28.3749 21.0719 28.3749 23.323C28.3749 25.5741 30.1941 27.399 32.4381 27.399Z" fill="white"/>
<path d="M47.3428 27.3823C49.5868 27.3823 51.4059 25.5574 51.4059 23.3063C51.4059 21.0552 49.5868 19.2303 47.3428 19.2303C45.0988 19.2303 43.2797 21.0552 43.2797 23.3063C43.2797 25.5574 45.0988 27.3823 47.3428 27.3823Z" fill="white"/>
</g>
<defs>
<filter id="filter0_d" x="0" y="0.863281" width="68" height="58.2736" filterUnits="userSpaceOnUse" color-interpolation-filters="sRGB">
<feFlood flood-opacity="0" result="BackgroundImageFix"/>
<feColorMatrix in="SourceAlpha" type="matrix" values="0 0 0 0 0 0 0 0 0 0 0 0 0 0 0 0 0 0 127 0"/>
<feOffset dx="2" dy="2"/>
<feGaussianBlur stdDeviation="2"/>
<feColorMatrix type="matrix" values="0 0 0 0 0 0 0 0 0 0 0 0 0 0 0 0 0 0 0.35 0"/>
<feBlend mode="normal" in2="BackgroundImageFix" result="effect1_dropShadow"/>
<feBlend mode="normal" in="SourceGraphic" in2="effect1_dropShadow" result="shape"/>
</filter>
<linearGradient id="paint0_linear" x1="2" y1="3" x2="62.0001" y2="52.9998" gradientUnits="userSpaceOnUse">
<stop stop-color="#04960B"/>
<stop offset="1" stop-color="#06460A"/>
</linearGradient>
</defs>
</svg>
