<svg width="86" height="80" viewBox="0 0 86 80" fill="none" xmlns="http://www.w3.org/2000/svg">
<g filter="url(#filter0_d)">
<path d="M13.3878 12.571H15.822V14.8568H13.3878V12.571Z" fill="url(#paint0_linear)"/>
<path d="M13.3878 49.1431H15.822V51.4288H13.3878V49.1431Z" fill="url(#paint1_linear)"/>
<path d="M8.51949 45.7139V54.8568C8.51949 55.1599 8.64771 55.4506 8.87596 55.6649C9.1042 55.8792 9.41377 55.9996 9.73655 55.9996H32.8609V44.571H9.73655C9.41377 44.571 9.1042 44.6915 8.87596 44.9058C8.64771 45.1201 8.51949 45.4108 8.51949 45.7139ZM20.6902 47.9996C20.6902 47.6965 20.8184 47.4058 21.0466 47.1915C21.2749 46.9772 21.5845 46.8568 21.9072 46.8568H26.7755C27.0983 46.8568 27.4079 46.9772 27.6361 47.1915C27.8644 47.4058 27.9926 47.6965 27.9926 47.9996V52.5711C27.9926 52.8742 27.8644 53.1648 27.6361 53.3792C27.4079 53.5935 27.0983 53.7139 26.7755 53.7139H21.9072C21.5845 53.7139 21.2749 53.5935 21.0466 53.3792C20.8184 53.1648 20.6902 52.8742 20.6902 52.5711V47.9996ZM10.9536 47.9996C10.9536 47.6965 11.0819 47.4058 11.3101 47.1915C11.5383 46.9772 11.8479 46.8568 12.1707 46.8568H17.039C17.3618 46.8568 17.6713 46.9772 17.8996 47.1915C18.1278 47.4058 18.256 47.6965 18.256 47.9996V52.5711C18.256 52.8742 18.1278 53.1648 17.8996 53.3792C17.6713 53.5935 17.3618 53.7139 17.039 53.7139H12.1707C11.8479 53.7139 11.5383 53.5935 11.3101 53.3792C11.0819 53.1648 10.9536 52.8742 10.9536 52.5711V47.9996Z" fill="url(#paint2_linear)"/>
<path d="M20.6901 40H32.8608V42.2857H20.6901V40Z" fill="url(#paint3_linear)"/>
<path d="M23.1245 49.1431H25.5587V51.4288H23.1245V49.1431Z" fill="url(#paint4_linear)"/>
<path d="M13.3878 40H18.2561V42.2857H13.3878V40Z" fill="url(#paint5_linear)"/>
<path d="M45.0313 21.7139H49.8996V23.9996H45.0313V21.7139Z" fill="url(#paint6_linear)"/>
<path d="M54.7681 18.2857V9.14286C54.7681 8.83975 54.6399 8.54906 54.4116 8.33474C54.1834 8.12041 53.8738 8 53.551 8H9.73655C9.41377 8 9.1042 8.12041 8.87596 8.33474C8.64771 8.54906 8.51949 8.83975 8.51949 9.14286V18.2857C8.51949 18.5888 8.64771 18.8795 8.87596 19.0938C9.1042 19.3082 9.41377 19.4286 9.73655 19.4286H53.551C53.8738 19.4286 54.1834 19.3082 54.4116 19.0938C54.6399 18.8795 54.7681 18.5888 54.7681 18.2857ZM18.256 16C18.256 16.3031 18.1278 16.5938 17.8996 16.8081C17.6713 17.0225 17.3618 17.1429 17.039 17.1429H12.1707C11.8479 17.1429 11.5383 17.0225 11.3101 16.8081C11.0818 16.5938 10.9536 16.3031 10.9536 16V11.4286C10.9536 11.1255 11.0818 10.8348 11.3101 10.6205C11.5383 10.4061 11.8479 10.2857 12.1707 10.2857H17.039C17.3618 10.2857 17.6713 10.4061 17.8996 10.6205C18.1278 10.8348 18.256 11.1255 18.256 11.4286V16ZM27.9926 16C27.9926 16.3031 27.8644 16.5938 27.6361 16.8081C27.4079 17.0225 27.0983 17.1429 26.7755 17.1429H21.9072C21.5845 17.1429 21.2749 17.0225 21.0466 16.8081C20.8184 16.5938 20.6902 16.3031 20.6902 16V11.4286C20.6902 11.1255 20.8184 10.8348 21.0466 10.6205C21.2749 10.4061 21.5845 10.2857 21.9072 10.2857H26.7755C27.0983 10.2857 27.4079 10.4061 27.6361 10.6205C27.8644 10.8348 27.9926 11.1255 27.9926 11.4286V16ZM47.4657 17.1429H30.4267V14.8571H47.4657V17.1429ZM47.4657 12.5714H30.4267V10.2857H47.4657V12.5714ZM52.334 17.1429H49.8998V14.8571H52.334V17.1429ZM52.334 12.5714H49.8998V10.2857H52.334V12.5714Z" fill="url(#paint7_linear)"/>
<path d="M23.1245 12.571H25.5587V14.8568H23.1245V12.571Z" fill="url(#paint8_linear)"/>
<path d="M20.6901 21.7139H42.5973V23.9996H20.6901V21.7139Z" fill="url(#paint9_linear)"/>
<path d="M13.3878 21.7139H18.2561V23.9996H13.3878V21.7139Z" fill="url(#paint10_linear)"/>
<path d="M13.3878 30.8569H15.822V33.1426H13.3878V30.8569Z" fill="url(#paint11_linear)"/>
<path d="M55.9853 37.7139C67.4122 37.7139 76.6755 35.6672 76.6755 33.1425C76.6755 30.6177 67.4122 28.571 55.9853 28.571C44.5585 28.571 35.2952 30.6177 35.2952 33.1425C35.2952 35.6672 44.5585 37.7139 55.9853 37.7139Z" fill="url(#paint12_linear)"/>
<path d="M53.551 26.2861H9.73655C9.41377 26.2861 9.1042 26.4065 8.87596 26.6209C8.64771 26.8352 8.51949 27.1259 8.51949 27.429V36.5719C8.51949 36.875 8.64771 37.1656 8.87596 37.38C9.1042 37.5943 9.41377 37.7147 9.73655 37.7147H32.8609V33.1433C32.8609 28.9376 43.0112 26.6061 53.7214 26.3204C53.666 26.3036 53.6089 26.2921 53.551 26.2861ZM18.256 34.2861C18.256 34.5892 18.1278 34.8799 17.8996 35.0943C17.6713 35.3086 17.3618 35.429 17.039 35.429H12.1707C11.8479 35.429 11.5383 35.3086 11.3101 35.0943C11.0818 34.8799 10.9536 34.5892 10.9536 34.2861V29.7147C10.9536 29.4116 11.0818 29.1209 11.3101 28.9066C11.5383 28.6923 11.8479 28.5718 12.1707 28.5718H17.039C17.3618 28.5718 17.6713 28.6923 17.8996 28.9066C18.1278 29.1209 18.256 29.4116 18.256 29.7147V34.2861ZM27.9926 34.2861C27.9926 34.5892 27.8644 34.8799 27.6361 35.0943C27.4079 35.3086 27.0983 35.429 26.7755 35.429H21.9072C21.5845 35.429 21.2749 35.3086 21.0466 35.0943C20.8184 34.8799 20.6902 34.5892 20.6902 34.2861V29.7147C20.6902 29.4116 20.8184 29.1209 21.0466 28.9066C21.2749 28.6923 21.5845 28.5718 21.9072 28.5718H26.7755C27.0983 28.5718 27.4079 28.6923 27.6361 28.9066C27.8644 29.1209 27.9926 29.4116 27.9926 29.7147V34.2861Z" fill="url(#paint13_linear)"/>
<path d="M35.2952 47.7939V55.9997C35.2952 57.554 42.5976 60.5711 55.9853 60.5711C69.3731 60.5711 76.6755 57.554 76.6755 55.9997V47.7939C72.6713 50.1825 64.3101 51.4282 55.9853 51.4282C47.6606 51.4282 39.2993 50.1825 35.2952 47.7939ZM57.2024 58.2854H54.7683V55.9997H57.2024V58.2854Z" fill="url(#paint14_linear)"/>
<path d="M35.2952 59.2229V67.4286C35.2952 68.9829 42.5976 72 55.9853 72C69.3731 72 76.6755 68.9829 76.6755 67.4286V59.2229C72.6713 61.6115 64.3101 62.8572 55.9853 62.8572C47.6606 62.8572 39.2993 61.6115 35.2952 59.2229ZM57.2024 68.5715H54.7683V66.2858H57.2024V68.5715Z" fill="url(#paint15_linear)"/>
<path d="M35.2952 36.366V44.5717C35.2952 46.126 42.5976 49.1431 55.9853 49.1431C69.3731 49.1431 76.6755 46.126 76.6755 44.5717V36.366C72.6713 38.7545 64.3101 40.0003 55.9853 40.0003C47.6606 40.0003 39.2993 38.7545 35.2952 36.366ZM57.2024 45.7145H54.7683V43.4288H57.2024V45.7145Z" fill="url(#paint16_linear)"/>
<path d="M23.1245 30.8569H25.5587V33.1426H23.1245V30.8569Z" fill="url(#paint17_linear)"/>
</g>
<defs>
<filter id="filter0_d" x="6.51949" y="6" width="76.156" height="72" filterUnits="userSpaceOnUse" color-interpolation-filters="sRGB">
<feFlood flood-opacity="0" result="BackgroundImageFix"/>
<feColorMatrix in="SourceAlpha" type="matrix" values="0 0 0 0 0 0 0 0 0 0 0 0 0 0 0 0 0 0 127 0"/>
<feOffset dx="2" dy="2"/>
<feGaussianBlur stdDeviation="2"/>
<feColorMatrix type="matrix" values="0 0 0 0 0 0 0 0 0 0 0 0 0 0 0 0 0 0 0.25 0"/>
<feBlend mode="normal" in2="BackgroundImageFix" result="effect1_dropShadow"/>
<feBlend mode="normal" in="SourceGraphic" in2="effect1_dropShadow" result="shape"/>
</filter>
<linearGradient id="paint0_linear" x1="13.3878" y1="12.5139" x2="15.6612" y2="15.0711" gradientUnits="userSpaceOnUse">
<stop stop-color="#00FF62"/>
<stop offset="1" stop-color="#386401"/>
</linearGradient>
<linearGradient id="paint1_linear" x1="13.3878" y1="49.0859" x2="15.6612" y2="51.6431" gradientUnits="userSpaceOnUse">
<stop stop-color="#00FF62"/>
<stop offset="1" stop-color="#386401"/>
</linearGradient>
<linearGradient id="paint2_linear" x1="8.51949" y1="44.2853" x2="17.0161" y2="63.3999" gradientUnits="userSpaceOnUse">
<stop stop-color="#00FF62"/>
<stop offset="1" stop-color="#386401"/>
</linearGradient>
<linearGradient id="paint3_linear" x1="20.6901" y1="39.9429" x2="21.4792" y2="44.3808" gradientUnits="userSpaceOnUse">
<stop stop-color="#00FF62"/>
<stop offset="1" stop-color="#386401"/>
</linearGradient>
<linearGradient id="paint4_linear" x1="23.1245" y1="49.0859" x2="25.3979" y2="51.6431" gradientUnits="userSpaceOnUse">
<stop stop-color="#00FF62"/>
<stop offset="1" stop-color="#386401"/>
</linearGradient>
<linearGradient id="paint5_linear" x1="13.3878" y1="39.9429" x2="15.0872" y2="43.7658" gradientUnits="userSpaceOnUse">
<stop stop-color="#00FF62"/>
<stop offset="1" stop-color="#386401"/>
</linearGradient>
<linearGradient id="paint6_linear" x1="45.0313" y1="21.6567" x2="46.7306" y2="25.4796" gradientUnits="userSpaceOnUse">
<stop stop-color="#00FF62"/>
<stop offset="1" stop-color="#386401"/>
</linearGradient>
<linearGradient id="paint7_linear" x1="8.51949" y1="7.71429" x2="13.5971" y2="29.4178" gradientUnits="userSpaceOnUse">
<stop stop-color="#00FF62"/>
<stop offset="1" stop-color="#386401"/>
</linearGradient>
<linearGradient id="paint8_linear" x1="23.1245" y1="12.5139" x2="25.3979" y2="15.0711" gradientUnits="userSpaceOnUse">
<stop stop-color="#00FF62"/>
<stop offset="1" stop-color="#386401"/>
</linearGradient>
<linearGradient id="paint9_linear" x1="20.6901" y1="21.6567" x2="21.138" y2="26.1908" gradientUnits="userSpaceOnUse">
<stop stop-color="#00FF62"/>
<stop offset="1" stop-color="#386401"/>
</linearGradient>
<linearGradient id="paint10_linear" x1="13.3878" y1="21.6567" x2="15.0871" y2="25.4796" gradientUnits="userSpaceOnUse">
<stop stop-color="#00FF62"/>
<stop offset="1" stop-color="#386401"/>
</linearGradient>
<linearGradient id="paint11_linear" x1="13.3878" y1="30.7998" x2="15.6612" y2="33.357" gradientUnits="userSpaceOnUse">
<stop stop-color="#00FF62"/>
<stop offset="1" stop-color="#386401"/>
</linearGradient>
<linearGradient id="paint12_linear" x1="35.2952" y1="28.3425" x2="38.9653" y2="45.8878" gradientUnits="userSpaceOnUse">
<stop stop-color="#00FF62"/>
<stop offset="1" stop-color="#386401"/>
</linearGradient>
<linearGradient id="paint13_linear" x1="8.51949" y1="26.0004" x2="13.702" y2="47.6513" gradientUnits="userSpaceOnUse">
<stop stop-color="#00FF62"/>
<stop offset="1" stop-color="#386401"/>
</linearGradient>
<linearGradient id="paint14_linear" x1="35.2952" y1="47.4745" x2="42.1876" y2="71.0522" gradientUnits="userSpaceOnUse">
<stop stop-color="#00FF62"/>
<stop offset="1" stop-color="#386401"/>
</linearGradient>
<linearGradient id="paint15_linear" x1="35.2952" y1="58.9035" x2="42.1876" y2="82.4812" gradientUnits="userSpaceOnUse">
<stop stop-color="#00FF62"/>
<stop offset="1" stop-color="#386401"/>
</linearGradient>
<linearGradient id="paint16_linear" x1="35.2952" y1="36.0465" x2="42.1876" y2="59.6242" gradientUnits="userSpaceOnUse">
<stop stop-color="#00FF62"/>
<stop offset="1" stop-color="#386401"/>
</linearGradient>
<linearGradient id="paint17_linear" x1="23.1245" y1="30.7998" x2="25.3979" y2="33.357" gradientUnits="userSpaceOnUse">
<stop stop-color="#00FF62"/>
<stop offset="1" stop-color="#386401"/>
</linearGradient>
</defs>
</svg>
