<svg width="86" height="80" viewBox="0 0 86 80" fill="none" xmlns="http://www.w3.org/2000/svg">
<g clip-path="url(#clip0)">
<g filter="url(#filter0_d)">
<path d="M12.2567 71.6762L13.2487 67.9558L10.5132 66.9417L8.63411 69.8496C8.63411 69.8496 9.6701 72.4883 8.51947 74.5976C8.52037 74.5978 9.96017 72.2949 12.2567 71.6762ZM10.4189 69.969C10.7557 69.8395 11.1438 69.9874 11.2829 70.2979C11.4231 70.6084 11.2633 70.9659 10.9266 71.0954C10.5899 71.225 10.2018 71.0771 10.0627 70.7666C9.92113 70.4548 10.0811 70.0973 10.4189 69.969Z" fill="url(#paint0_linear)"/>
<path d="M40.9567 28.5247C33.0791 34.5917 22.766 47.0888 14.0198 61.6873L14.0148 61.6816L12.486 64.215L14.1162 64.804L14.9777 62.6727C19.6437 54.7749 32.302 34.1495 55.4476 20.446C55.4476 20.446 64.0647 15.6267 72.5547 8.96167C70.4877 10.5842 66.4099 12.6179 64.1988 13.9299C58.3956 17.3729 51.2343 20.6086 40.9567 28.5247Z" fill="url(#paint1_linear)"/>
<path d="M12.8802 50.1686C11.0888 56.1141 11.1914 60.6422 11.8846 61.8865H12.9681C15.9601 56.0671 30.3705 34.9868 39.34 28.3884C48.6329 21.5514 55.8014 17.5734 61.8305 14.6722C63.9476 13.6536 66.1194 12.274 68.0779 10.891C70.4561 9.12993 72.8671 7.24622 74.9781 5.40274L68.8588 9.17122L71.5872 5.25254L66.3781 10.2264L69.7678 4.80005C61.7486 5.47942 54.3069 9.24685 54.3069 9.24685C51.3297 12.5628 48.932 17.8379 48.932 17.8379C48.849 15.2003 50.7514 11.2062 50.7514 11.2062C49.3457 11.8089 44.0048 14.6734 44.0048 14.6734C41.3924 16.7084 40.581 22.0591 40.581 22.0591C40.0843 19.9485 41.8207 15.8799 41.8207 15.8799C34.2957 19.9498 28.9208 26.8828 28.9208 26.8828C25.2004 33.7404 28.2595 39.0911 27.1014 37.8101C25.9434 36.5291 26.1924 31.8567 26.1924 31.8567C18.3368 38.9411 17.5107 42.3315 17.5107 42.3315C16.188 45.346 15.03 53.41 15.03 53.41C14.2857 52.6561 15.03 48.4362 15.03 48.4362C13.1279 52.2046 14.038 55.7462 14.038 55.7462C13.129 55.4439 12.8802 50.1686 12.8802 50.1686Z" fill="url(#paint2_linear)"/>
<path d="M74.9792 7.78955C74.9792 7.78955 71.9544 10.5418 68.079 13.2778C62.0037 17.7773 56.1541 21.4554 56.1541 21.4554C33.2377 34.1712 20.4684 54.9226 16.2479 62.0378H18.4918C19.2848 61.4408 20.4758 60.9906 25.4494 59.6386C31.7333 57.9302 35.4818 54.3635 35.4818 54.3635C35.4818 54.3635 29.7493 57.378 27.0478 57.0768C24.3463 56.7756 20.7163 57.7298 20.7163 57.7298C20.7163 57.7298 19.3301 57.1271 26.1657 56.1727C33.0013 55.2182 44.2464 48.0341 44.2464 48.0341C44.2464 48.0341 39.9465 49.6919 37.9625 49.5407C35.9785 49.3894 31.0722 49.5407 31.0722 49.5407C34.324 48.8371 37.3561 49.2394 42.3174 47.4807C47.2786 45.7219 47.0029 45.8731 47.0029 45.8731C52.6255 44.1143 54.961 38.6387 54.961 38.6387C53.9885 38.9905 46.5612 39.8441 43.4803 38.9905C40.3993 38.1369 35.1502 38.9905 35.1502 38.9905C40.1114 37.4333 41.2145 38.1369 42.4262 38.0865C43.6389 38.0362 47.5534 38.3374 55.326 35.8259C63.0987 33.3145 65.3035 30.199 65.3035 30.199L60.0616 30.8567C63.4843 30.3159 67.3425 28.1893 67.3425 28.1893C64.9717 28.792 61.2782 29.0933 61.2782 29.0933C65.633 28.1893 68.0588 26.9334 68.0588 26.9334C72.1379 24.0196 73.075 19.6989 73.075 19.6989C67.2864 21.5574 62.7119 20.7038 62.7119 20.7038C70.6506 20.202 72.8554 18.292 73.9571 17.8405C75.0602 17.388 75.514 15.5169 75.514 15.5169C71.5033 16.8736 66.9555 17.0992 66.9555 17.0992C71.8752 16.3832 76.091 14.0468 76.091 14.0468V11.708C74.1888 12.7255 70.8417 13.5172 70.8417 13.5172L76.0506 10.3524C76.3434 8.76912 74.9792 7.78955 74.9792 7.78955Z" fill="url(#paint3_linear)"/>
<path d="M10.7155 66.0114L13.8136 67.1768L14.3906 65.8888L11.2927 64.7236L10.7155 66.0114Z" fill="url(#paint4_linear)"/>
<path d="M45.148 64.9344C34.9119 69.5554 25.0783 72.7052 12.0003 73.1177C10.7801 73.1566 10.7741 74.3024 12.0003 74.2635C23.6995 73.8946 33.4342 71.5331 42.8223 67.4012C53.2805 62.7975 62.886 58.9397 75.9858 57.6288C77.1938 57.5072 76.6801 56.404 75.4806 56.5243C63.8792 57.6863 54.4531 60.7341 45.148 64.9344Z" fill="url(#paint5_linear)"/>
</g>
</g>
<defs>
<filter id="filter0_d" x="6.51947" y="2.80005" width="76.1558" height="77.7976" filterUnits="userSpaceOnUse" color-interpolation-filters="sRGB">
<feFlood flood-opacity="0" result="BackgroundImageFix"/>
<feColorMatrix in="SourceAlpha" type="matrix" values="0 0 0 0 0 0 0 0 0 0 0 0 0 0 0 0 0 0 127 0"/>
<feOffset dx="2" dy="2"/>
<feGaussianBlur stdDeviation="2"/>
<feColorMatrix type="matrix" values="0 0 0 0 0 0 0 0 0 0 0 0 0 0 0 0 0 0 0.25 0"/>
<feBlend mode="normal" in2="BackgroundImageFix" result="effect1_dropShadow"/>
<feBlend mode="normal" in="SourceGraphic" in2="effect1_dropShadow" result="shape"/>
</filter>
<linearGradient id="paint0_linear" x1="8.51947" y1="66.7503" x2="15.5374" y2="71.3292" gradientUnits="userSpaceOnUse">
<stop stop-color="#00FF62"/>
<stop offset="1" stop-color="#386401"/>
</linearGradient>
<linearGradient id="paint1_linear" x1="12.486" y1="7.56561" x2="67.9591" y2="70.5938" gradientUnits="userSpaceOnUse">
<stop stop-color="#00FF62"/>
<stop offset="1" stop-color="#386401"/>
</linearGradient>
<linearGradient id="paint2_linear" x1="11.4196" y1="3.37289" x2="67.8484" y2="69.7332" gradientUnits="userSpaceOnUse">
<stop stop-color="#00FF62"/>
<stop offset="1" stop-color="#386401"/>
</linearGradient>
<linearGradient id="paint3_linear" x1="16.2479" y1="6.43334" x2="69.9486" y2="69.0053" gradientUnits="userSpaceOnUse">
<stop stop-color="#00FF62"/>
<stop offset="1" stop-color="#386401"/>
</linearGradient>
<linearGradient id="paint4_linear" x1="10.7155" y1="64.6623" x2="12.9345" y2="68.1736" gradientUnits="userSpaceOnUse">
<stop stop-color="#00FF62"/>
<stop offset="1" stop-color="#386401"/>
</linearGradient>
<linearGradient id="paint5_linear" x1="11.0829" y1="56.0714" x2="19.6299" y2="89.4335" gradientUnits="userSpaceOnUse">
<stop stop-color="#00FF62"/>
<stop offset="1" stop-color="#386401"/>
</linearGradient>
<clipPath id="clip0">
<rect width="85.1948" height="80" fill="white"/>
</clipPath>
</defs>
</svg>
