<svg width="86" height="80" viewBox="0 0 86 80" fill="none" xmlns="http://www.w3.org/2000/svg">
<g filter="url(#filter0_d)">
<path d="M64.3083 30.7581L51.5893 30.7722C49.5148 30.7722 47.7922 32.6422 47.7922 34.9404V64.3474C47.7922 66.6457 49.5142 68.8 51.5893 68.8H51.6068L64.2998 68.6442C66.3743 68.6442 68.0665 66.7029 68.0665 64.4046L68.0814 34.9758C68.0814 32.6699 66.3903 30.7581 64.3083 30.7581ZM56.833 32.8162H59.0805C59.6684 32.8162 60.1455 33.3448 60.1455 33.996C60.1455 34.6472 59.6684 35.1758 59.0805 35.1758H56.833C56.2452 35.1758 55.7681 34.6472 55.7681 33.996C55.7681 33.3448 56.2446 32.8162 56.833 32.8162ZM52.9518 32.9572C53.3512 32.5207 54.0594 32.5207 54.4587 32.9572C54.6557 33.1814 54.7676 33.4822 54.7676 33.7948C54.7676 34.1016 54.6557 34.4083 54.4587 34.6266C54.2617 34.8449 53.9843 34.9746 53.7026 34.9746C53.4252 34.9746 53.1489 34.8449 52.9518 34.6266C52.7548 34.4083 52.6377 34.1016 52.6377 33.7948C52.6382 33.4816 52.7548 33.1749 52.9518 32.9572ZM57.9565 67.3518C57.0753 67.3518 56.358 66.5572 56.358 65.5815C56.358 64.6058 57.0753 63.8112 57.9565 63.8112C58.8377 63.8112 59.555 64.6052 59.555 65.5815C59.555 66.5578 58.8377 67.3518 57.9565 67.3518ZM65.8961 62.3111C65.8961 62.6367 65.6581 62.901 65.3637 62.901H50.4546C50.1601 62.901 49.9221 62.6367 49.9221 62.3111V37.5354C49.9221 37.2098 50.1601 36.9455 50.4546 36.9455H65.3637C65.6581 36.9455 65.8961 37.2098 65.8961 37.5354V62.3111Z" fill="url(#paint0_linear)"/>
<path d="M76.5306 54.0523H73.3507V14.8937C73.3507 12.2286 71.3907 10.3999 68.9855 10.3999H17.0145C14.6083 10.3999 12.6494 12.2286 12.6494 14.8937V54.0523H9.46842C9.17449 54.0523 8.9221 53.9603 8.9221 54.2859V54.8357C8.9221 57.7923 11.1068 60.5412 13.775 60.5412H48.8572V51.6927H15.8442V15.709H70.1559V51.6927H67.4935V60.5412H72.2229C74.8927 60.5412 77.0779 57.7923 77.0779 54.8357V54.2859C77.0779 53.9603 76.8245 54.0523 76.5306 54.0523ZM43.7503 13.8201C43.5527 14.039 43.2812 14.1623 42.9995 14.1623C42.7178 14.1623 42.4452 14.039 42.2487 13.8201C42.0458 13.5966 41.9346 13.2951 41.9346 12.9825C41.9346 12.6698 42.0458 12.369 42.2487 12.1507C42.6427 11.7083 43.3562 11.7083 43.7503 12.1507C43.9521 12.369 44.0644 12.6757 44.0644 12.9825C44.0644 13.2951 43.9521 13.596 43.7503 13.8201Z" fill="url(#paint1_linear)"/>
</g>
<defs>
<filter id="filter0_d" x="6.9221" y="8.3999" width="76.1558" height="66.4001" filterUnits="userSpaceOnUse" color-interpolation-filters="sRGB">
<feFlood flood-opacity="0" result="BackgroundImageFix"/>
<feColorMatrix in="SourceAlpha" type="matrix" values="0 0 0 0 0 0 0 0 0 0 0 0 0 0 0 0 0 0 127 0"/>
<feOffset dx="2" dy="2"/>
<feGaussianBlur stdDeviation="2"/>
<feColorMatrix type="matrix" values="0 0 0 0 0 0 0 0 0 0 0 0 0 0 0 0 0 0 0.25 0"/>
<feBlend mode="normal" in2="BackgroundImageFix" result="effect1_dropShadow"/>
<feBlend mode="normal" in="SourceGraphic" in2="effect1_dropShadow" result="shape"/>
</filter>
<linearGradient id="paint0_linear" x1="47.7922" y1="29.807" x2="80.3766" y2="48.163" gradientUnits="userSpaceOnUse">
<stop stop-color="#00FF62"/>
<stop offset="1" stop-color="#386401"/>
</linearGradient>
<linearGradient id="paint1_linear" x1="8.9221" y1="9.14637" x2="56.0241" y2="76.7723" gradientUnits="userSpaceOnUse">
<stop stop-color="#00FF62"/>
<stop offset="1" stop-color="#386401"/>
</linearGradient>
</defs>
</svg>
